# AST/ASF file generated using VICON BodyLanguage
# -----------------------------------------------
:version 1.10
:name VICON
:units
  mass 1.0
  length 0.45
  angle deg
:documentation
   .ast/.asf automatically generated from VICON data using
   VICON BodyBuilder and BodyLanguage model FoxedUp or BRILLIANT.MOD
:root
   order TX TY TZ RX RY RZ
   axis XYZ
   position 0 0 0  
   orientation 0 0 0 
:bonedata
  begin
     id 1 
     name lhipjoint
     direction 0.575328 -0.747301 0.332475 
     length 2.40933 
     axis 0 0 0  XYZ
  end
  begin
     id 2 
     name lfemur
     direction 0.34202 -0.939693 0  
     length 7.31453  
     axis 0 0 20  XYZ
    dof rx ry rz
    limits (-160.0 20.0)
           (-70.0 70.0)
           (-60.0 70.0)
  end
  begin
     id 3 
     name ltibia
     direction 0.34202 -0.939693 0   
     length 7.82185   
     axis 0 0 20   XYZ
    dof rx
    limits (-10.0 170.0)
  end
  begin
     id 4 
     name lfoot
     direction 0.0795993 -0.218697 0.972541   
     length 2.19173   
     axis -90 7.62852e-016 20   XYZ
    dof rx rz
    limits (-45.0 90.0)
           (-70.0 20.0)
  end
  begin
     id 5 
     name ltoes
     direction 1.53537e-011 -4.21894e-011 1   
     length 1.10023   
     axis -90 7.62852e-016 20   XYZ
    dof rx
    limits (-90.0 20.0)
  end
  begin
     id 6 
     name rhipjoint
     direction -0.513884 -0.783789 0.348708   
     length 2.29716  
     axis 0 0 0  XYZ 
  end
  begin
     id 7 
     name rfemur
     direction -0.34202 -0.939693 0   
     length 7.59573   
     axis 0 0 -20   XYZ
    dof rx ry rz
    limits (-160.0 20.0)
           (-70.0 70.0)
           (-70.0 60.0)
  end
  begin
     id 8 
     name rtibia
     direction -0.34202 -0.939693 0   
     length 7.66402   
     axis 0 0 -20   XYZ
    dof rx
    limits (-10.0 170.0)
 end
 begin
     id 9 
     name rfoot
     direction -0.137793 -0.378584 0.915253   
     length 2.27056  
     axis -90 -7.62852e-016 -20   XYZ
    dof rx rz
    limits (-45.0 90.0)
           (-20.0 70.0)
  end
  begin
     id 10 
     name rtoes
     direction -1.53493e-011 -4.22159e-011 1   
     length 1.11766   
     axis -90 -7.62852e-016 -20   XYZ
    dof rx
    limits (-90.0 20.0)
  end
  begin
     id 11 
     name lowerback
     direction -0.00732775 0.998356 -0.05685   
     length 2.16513   
     axis 0 0 0   XYZ
    dof rx ry rz
    limits (-20.0 45.0)
           (-30.0 30.0)
           (-30.0 30.0)
  end
  begin
     id 12 
     name upperback
     direction 0.0218081 0.999627 -0.0164647   
     length 2.16755   
     axis 0 0 0   XYZ
    dof rx ry rz
    limits (-20.0 45.0)
           (-30.0 30.0)
           (-30.0 30.0)
  end
  begin
     id 13 
     name thorax
     direction 0.02365 0.999661 0.0108914   
     length 2.16932   
     axis 0 0 0   XYZ
    dof rx ry rz
    limits (-20.0 45.0)
           (-30.0 30.0)
           (-30.0 30.0)
  end
  begin
     id 14 
     name lowerneck
     direction -0.0523929 0.978385 0.200044   
     length 1.63877   
     axis 0 0 0   XYZ
    dof rx ry rz
    limits (-20.0 45.0)
           (-30.0 30.0)
           (-30.0 30.0)
  end
  begin
     id 15 
     name upperneck
     direction 0.0448674 0.981321 -0.187074   
     length 1.69014   
     axis 0 0 0   XYZ
    dof rx ry rz
    limits (-20.0 45.0)
           (-30.0 30.0)
           (-30.0 30.0)
  end
  begin
     id 16
     name head
     direction 0.0199089 0.996118 -0.0857429  
     length 1.70094  
     axis 0 0 0   XYZ
    dof rx ry rz
    limits (-20.0 45.0)
           (-30.0 30.0)
           (-30.0 30.0)
  end
  begin
     id 17 
     name lclavicle
     direction 0.940366 0.30191 -0.156722  
     length 3.37521  
     axis 0 0 0   XYZ
    dof ry rz
    limits (-20.0 10.0)
           (0.0 20.0)
  end
  begin
     id 18 
     name lhumerus
     direction 1 -4.4897e-011 -1.7911e-027   
     length 5.25287   
     axis 180 -30 -90   XYZ
    dof rx ry rz
    limits (-60.0 90.0)
           (-90.0 90.0)
           (-90.0 90.0)
  end
  begin
     id 19
     name lradius
     direction 1 -4.48951e-011 1.04424e-027   
     length 3.51014   
     axis 180 -30 -90   XYZ
    dof rx
    limits (-10.0 170.0)
  end
  begin
     id 20
     name lwrist
     direction 1 -4.48997e-011 -9.5942e-028   
     length 1.75507   
     axis 8.48502e-016 90 90   XYZ
    dof ry
    limits (-180.0 0.0)
 end
  begin
     id 21 
     name lhand
     direction 1 -4.48831e-011 -1.90777e-027   
     length 0.706179   
     axis 1.22306e-015 90 90   XYZ
    dof rx rz
    limits (-90.0 90.0)
           (-45.0 45.0)
  end
  begin
     id 22 
     name lfingers
     direction 1 -4.49108e-011 -3.85244e-027   
     length 0.569339   
     axis 2.44611e-015 90 90   XYZ
    dof rx
    limits (0.0 90.0)
  end
  begin
     id 23
     name lthumb
     direction 0.707107 -6.34953e-011 0.707107   
     length 0.817461   
     axis -90 45 -1.62303e-014   XYZ
    dof rx rz
    limits (-45.0 45.0)
           (-45.0 45.0)
  end
  begin
     id 24 
     name rclavicle
     direction -0.905329 0.382405 -0.184787   
     length 3.30787  
     axis 0 0 0   XYZ 
    dof ry rz
    limits (-10.0 20.0)
           (-20.0 0.0)
  end
  begin
     id 25 
     name rhumerus
     direction -1 -4.48953e-011 -9.15316e-029  
     length 5.28721   
     axis 180 30 90   XYZ
    dof rx ry rz
    limits (-90.0 60.0)
           (-90.0 90.0)
           (-90.0 90.0)
  end
  begin
     id 26 
     name rradius
     direction -1 -4.48987e-011 9.37824e-028   
     length 3.50544   
     axis 180 30 90   XYZ
    dof rx
    limits (-10.0 170.0)
  end
  begin
     id 27 
     name rwrist
     direction -1 -4.48967e-011 -9.58414e-028   
     length 1.75272   
     axis 8.48502e-016 -90 -90   XYZ
    dof ry
    limits (-180.0 0.0)
  end
  begin
     id 28
     name rhand
     direction -1 -4.48904e-011 -1.91266e-027   
     length 0.884996   
     axis 1.22306e-015 -90 -90   XYZ
    dof rx rz
    limits (-90.0 90.0)
           (-45.0 45.0)
  end
  begin
     id 29
     name rfingers
     direction -1 -4.4909e-011 -3.85015e-027   
     length 0.713507   
     axis 2.44611e-015 -90 -90   XYZ
    dof rx
    limits (0.0 90.0)
  end
  begin
     id 30
     name rthumb
     direction -0.707107 -6.34853e-011 0.707107   
     length 1.02446   
     axis -90 -45 1.62303e-014   XYZ
    dof rx rz
    limits (-45.0 45.0)
           (-45.0 45.0)
  end
:hierarchy
  begin
    root lhipjoint rhipjoint lowerback
    lhipjoint lfemur
    lfemur ltibia
    ltibia lfoot
    lfoot ltoes
    rhipjoint rfemur
    rfemur rtibia
    rtibia rfoot
    rfoot rtoes
    lowerback upperback
    upperback thorax
    thorax lowerneck lclavicle rclavicle
    lowerneck upperneck
    upperneck head
    lclavicle lhumerus
    lhumerus lradius
    lradius lwrist
    lwrist lhand lthumb
    lhand lfingers
    rclavicle rhumerus
    rhumerus rradius
    rradius rwrist
    rwrist rhand rthumb
    rhand rfingers
  end

#!OML:ASF F:\twosubjects\two\Thursday\Session 1\justin.ASF
:FULLY-SPECIFIED
:DEGREES
81
root 3.58105 17.6168 2.53729 -169.148 7.08508 185.522
lowerback -1.03287 1.27339 -0.814114
upperback 0.070398 1.72449 1.7915
thorax 0.571773 0.869197 2.3172
lowerneck -23.571 -1.69243 -8.19387
upperneck 21.0275 -0.0656447 3.19064
head 10.6742 -0.231172 2.50558
rclavicle 2.57426e-014 1.25234e-014
rhumerus -18.6965 -22.4193 -72.0513
rradius 20.5043
rwrist 54.1489
rhand 1.57656 4.63749
rfingers 7.12502
rthumb 27.0996 -23.4374
lclavicle 2.57426e-014 1.25234e-014
lhumerus -19.7841 5.5686 83.1244
lradius 19.6775
lwrist -15.5814
lhand -5.43862 40.7403
lfingers 7.12502
lthumb 20.3719 69.6918
rfemur 4.14701 2.53847 24.3527
rtibia 33.683
rfoot -12.3469 1.68366
rtoes -21.4432
lfemur -39.3056 7.3381 -18.5729
ltibia 33.2941
lfoot -0.488367 1.42075
ltoes -3.33789
82
root 3.55079 17.6243 2.35922 -169.449 7.10109 184.819
lowerback -1.54573 1.36576 -1.56895
upperback 0.284849 1.85316 1.66754
thorax 1.05339 0.920082 2.63369
lowerneck -23.2492 -1.87269 -8.35259
upperneck 20.8305 -0.26021 3.08446
head 10.5577 -0.342925 2.45766
rclavicle 1.3418e-015 5.96354e-015
rhumerus -15.9932 -21.3404 -72.8351
rradius 21.1425
rwrist 51.8929
rhand 0.4102 5.30442
rfingers 7.12502
rthumb 25.9832 -22.9393
lclavicle 1.3418e-015 5.96354e-015
lhumerus -18.1521 4.35775 83.922
lradius 19.7305
lwrist -15.0319
lhand -5.60368 40.3376
lfingers 7.12502
lthumb 20.2133 69.3059
rfemur 3.15441 2.31496 23.3368
rtibia 36.2899
rfoot -9.53697 2.05214
rtoes -19.9248
lfemur -38.5711 7.39197 -19.5061
ltibia 33.5908
lfoot -1.3127 1.16684
ltoes -2.9517
83
root 3.52299 17.6342 2.19182 -169.775 6.91223 184.359
lowerback -1.60115 1.36256 -2.03432
upperback 0.350988 1.85573 1.63155
thorax 1.13878 0.915204 2.86103
lowerneck -23.4468 -1.82796 -8.52192
upperneck 21.1806 -0.104011 3.09511
head 10.7137 -0.285502 2.52158
rclavicle -5.29264e-015 -3.18055e-015
rhumerus -13.3112 -20.3104 -73.4508
rradius 21.4764
rwrist 49.7576
rhand -1.46814 6.04383
rfingers 7.12502
rthumb 24.1834 -22.4515
lclavicle -5.29264e-015 -3.18055e-015
lhumerus -16.7664 2.69929 84.6658
lradius 20.0031
lwrist -14.1552
lhand -5.28538 41.058
lfingers 7.12502
lthumb 20.5192 69.9937
rfemur 2.11042 2.02142 22.6917
rtibia 38.8681
rfoot -6.12502 2.22372
rtoes -17.7687
lfemur -37.8157 7.45773 -20.1754
ltibia 33.8606
lfoot -2.10468 0.951602
ltoes -2.32951
84
root 3.49397 17.6488 2.03026 -170.011 6.74922 183.97
lowerback -1.37884 1.42369 -2.32713
upperback 0.226525 1.93641 1.49591
thorax 0.876306 0.957803 2.87869
lowerneck -23.4622 -1.84276 -8.18664
upperneck 21.3149 -0.0893159 2.56596
head 10.7668 -0.31715 2.27856
rclavicle -1.28962e-014 2.78299e-015
rhumerus -10.9644 -20.1747 -73.906
rradius 21.7001
rwrist 48.4987
rhand -2.42282 6.19723
rfingers 7.12502
rthumb 23.2678 -22.4169
lclavicle -1.28962e-014 2.78299e-015
lhumerus -15.6256 0.564371 85.205
lradius 20.4117
lwrist -13.363
lhand -4.94393 42.0976
lfingers 7.12502
lthumb 20.8473 70.9975
rfemur 0.848738 1.85624 22.1156
rtibia 41.4736
rfoot -2.61871 2.23738
rtoes -14.7355
lfemur -37.0939 7.48277 -20.7538
ltibia 34.065
lfoot -2.80648 0.952703
ltoes -2.60074
85
root 3.46621 17.6547 1.86633 -170.208 6.58379 183.646
lowerback -0.771847 1.47536 -2.63003
upperback -0.21362 1.99513 1.42519
thorax 0.0730059 1.00446 2.95062
lowerneck -23.3615 -1.92849 -8.00709
upperneck 21.7292 -0.140638 2.1706
head 10.9073 -0.374328 2.10429
rclavicle 1.0312e-014 -6.16232e-015
rhumerus -9.22063 -19.3762 -74.0658
rradius 22.206
rwrist 46.6644
rhand -2.79113 5.99205
rfingers 7.12502
rthumb 22.9144 -22.6663
lclavicle 1.0312e-014 -6.16232e-015
lhumerus -15.1648 -1.81157 85.7623
lradius 21.2062
lwrist -11.9053
lhand -5.13209 41.5878
lfingers 7.12502
lthumb 20.6665 70.5075
rfemur -0.498675 1.80112 21.6188
rtibia 44.0853
rfoot 0.328653 2.36779
rtoes -12.6542
lfemur -36.4068 7.61112 -21.3195
ltibia 34.2151
lfoot -3.51301 0.810035
ltoes -3.58615
